# xmcd
#
# Track frame offsets: 
#        182
#        18232
#        35370
#        64442
#
# Disc length: 1220 seconds
#
# Revision: 0
# Processed by: cddbd v1.5.2PL0 Copyright (c) Steve Scherf et al.
# Submitted via: ExactAudioCopy v0.99pb4
#
DISCID=2d04c204
DTITLE=Filii Nigrantium Infernalium - A Era Do Abutre
DYEAR=1995
DGENRE=Black Metal
TTITLE0=Abadia Do Fogo Negro
TTITLE1=Herança De Outono
TTITLE2=Inverno, Trono Inverno
TTITLE3=A Era Do Abutre
EXTD=
EXTT0=
EXTT1=
EXTT2=
EXTT3=
PLAYORDER=
